<svg aria-hidden="true" viewBox="0 0 20 20" fill="currentColor" xmlns="http://www.w3.org/2000/svg">
	<path d="M10 1.71875C8.48958 1.71875 7.09635 2.09635 5.82031 2.85156C4.54427 3.58073 3.52865 4.58333 2.77344 5.85938C2.04427 7.13542 1.67969 8.52865 1.67969 10.0391C1.67969 11.4193 1.97917 12.7083 2.57812 13.9062C3.20312 15.0781 4.04948 16.0547 5.11719 16.8359C6.1849 17.6172 7.38281 18.099 8.71094 18.2812V12.4609H6.60156V10.0391H8.71094V8.20312C8.71094 7.1875 8.98438 6.39323 9.53125 5.82031C10.1042 5.2474 10.8724 4.96094 11.8359 4.96094C12.4609 4.96094 13.0859 5.01302 13.7109 5.11719V7.1875H12.6562C12.1875 7.1875 11.8359 7.31771 11.6016 7.57812C11.3932 7.8125 11.2891 8.11198 11.2891 8.47656V10.0391H13.6328L13.2422 12.4609H11.2891V18.2812C12.6432 18.0729 13.8542 17.5781 14.9219 16.7969C15.9896 16.0156 16.8229 15.0391 17.4219 13.8672C18.0208 12.6693 18.3203 11.3932 18.3203 10.0391C18.3203 8.52865 17.9427 7.13542 17.1875 5.85938C16.4583 4.58333 15.4557 3.58073 14.1797 2.85156C12.9036 2.09635 11.5104 1.71875 10 1.71875Z" fill="black" fill-opacity="0.87" />
</svg>
