<svg aria-hidden="true" viewBox="0 0 20 20" fill="currentColor" xmlns="http://www.w3.org/2000/svg">
	<path d="M6.48438 1.67969H13.5156C14.375 1.67969 15.1693 1.90104 15.8984 2.34375C16.6536 2.76042 17.2396 3.34635 17.6562 4.10156C18.099 4.83073 18.3203 5.625 18.3203 6.48438V13.5156C18.3203 14.375 18.099 15.1823 17.6562 15.9375C17.2396 16.6667 16.6536 17.2396 15.8984 17.6562C15.1693 18.099 14.375 18.3203 13.5156 18.3203H6.48438C5.625 18.3203 4.81771 18.099 4.0625 17.6562C3.33333 17.2396 2.7474 16.6667 2.30469 15.9375C1.88802 15.1823 1.67969 14.375 1.67969 13.5156V6.48438C1.67969 5.625 1.88802 4.83073 2.30469 4.10156C2.7474 3.34635 3.33333 2.76042 4.0625 2.34375C4.81771 1.90104 5.625 1.67969 6.48438 1.67969ZM6.32812 3.32031C5.49479 3.32031 4.77865 3.61979 4.17969 4.21875C3.60677 4.79167 3.32031 5.49479 3.32031 6.32812V13.6719C3.32031 14.5052 3.60677 15.2214 4.17969 15.8203C4.77865 16.3932 5.49479 16.6797 6.32812 16.6797H13.6719C14.5052 16.6797 15.2083 16.3932 15.7812 15.8203C16.3802 15.2214 16.6797 14.5052 16.6797 13.6719V6.32812C16.6797 5.49479 16.3802 4.79167 15.7812 4.21875C15.2083 3.61979 14.5052 3.32031 13.6719 3.32031H6.32812ZM14.375 4.57031C14.6615 4.57031 14.9089 4.67448 15.1172 4.88281C15.3255 5.09115 15.4297 5.33854 15.4297 5.625C15.4297 5.91146 15.3255 6.15885 15.1172 6.36719C14.9089 6.57552 14.6615 6.67969 14.375 6.67969C14.0885 6.67969 13.8411 6.57552 13.6328 6.36719C13.4245 6.15885 13.3203 5.91146 13.3203 5.625C13.3203 5.33854 13.4245 5.09115 13.6328 4.88281C13.8411 4.67448 14.0885 4.57031 14.375 4.57031ZM10 5.82031C10.7552 5.82031 11.4453 6.01562 12.0703 6.40625C12.7214 6.77083 13.2292 7.27865 13.5938 7.92969C13.9844 8.55469 14.1797 9.24479 14.1797 10C14.1797 10.7552 13.9844 11.4583 13.5938 12.1094C13.2292 12.7344 12.7214 13.2422 12.0703 13.6328C11.4453 13.9974 10.7552 14.1797 10 14.1797C9.24479 14.1797 8.54167 13.9974 7.89062 13.6328C7.26562 13.2422 6.75781 12.7344 6.36719 12.1094C6.0026 11.4583 5.82031 10.7552 5.82031 10C5.82031 9.24479 6.0026 8.55469 6.36719 7.92969C6.75781 7.27865 7.26562 6.77083 7.89062 6.40625C8.54167 6.01562 9.24479 5.82031 10 5.82031ZM10 7.5C9.29688 7.5 8.69792 7.7474 8.20312 8.24219C7.73438 8.71094 7.5 9.29688 7.5 10C7.5 10.7031 7.73438 11.3021 8.20312 11.7969C8.69792 12.2656 9.29688 12.5 10 12.5C10.7031 12.5 11.2891 12.2656 11.7578 11.7969C12.2526 11.3021 12.5 10.7031 12.5 10C12.5 9.29688 12.2526 8.71094 11.7578 8.24219C11.2891 7.7474 10.7031 7.5 10 7.5Z" fill="black" fill-opacity="0.87" />
</svg>
