<svg aria-hidden="true" viewBox="0 0 20 20" fill="currentColor" xmlns="http://www.w3.org/2000/svg">
	<path d="M10 1.66449C8.46354 1.66449 7.05729 2.01605 5.78125 2.71918C4.50521 3.4223 3.5026 4.38584 2.77344 5.6098C2.04427 6.83376 1.67969 8.21397 1.67969 9.75043C1.67969 10.9223 1.90104 12.0291 2.34375 13.0707C2.8125 14.0864 3.46354 14.9718 4.29688 15.727C4.42708 15.8312 4.49219 15.9874 4.49219 16.1957L4.53125 17.6801C4.55729 17.9145 4.66146 18.0968 4.84375 18.227C5.05208 18.3572 5.27344 18.3702 5.50781 18.2661L7.14844 17.5239C7.30469 17.4718 7.44792 17.4588 7.57812 17.4848C8.33333 17.7192 9.14062 17.8364 10 17.8364C11.5365 17.8364 12.9427 17.4848 14.2188 16.7817C15.4948 16.0786 16.4974 15.115 17.2266 13.8911C17.9557 12.6411 18.3203 11.2608 18.3203 9.75043C18.3203 8.21397 17.9557 6.83376 17.2266 5.6098C16.4974 4.38584 15.4948 3.4223 14.2188 2.71918C12.9427 2.01605 11.5365 1.66449 10 1.66449ZM15 7.87543L12.5391 11.7426C12.3568 12.0551 12.0833 12.2504 11.7188 12.3286C11.3542 12.3806 11.0286 12.2895 10.7422 12.0551L8.78906 10.6098C8.71094 10.5577 8.60677 10.5317 8.47656 10.5317C8.3724 10.5317 8.28125 10.5577 8.20312 10.6098L5.58594 12.6411C5.40365 12.7713 5.22135 12.7713 5.03906 12.6411C4.88281 12.4848 4.86979 12.3025 5 12.0942L7.46094 8.22699C7.64323 7.91449 7.91667 7.7322 8.28125 7.68011C8.64583 7.60199 8.97135 7.66709 9.25781 7.87543L11.2109 9.3598C11.4193 9.49001 11.6146 9.49001 11.7969 9.3598L14.4141 7.32855C14.5964 7.19834 14.7656 7.21136 14.9219 7.36761C15.1042 7.49782 15.1302 7.66709 15 7.87543Z" fill="black" fill-opacity="0.87" />
</svg>
