<svg aria-hidden="true" viewBox="0 0 20 20" fill="currentColor" xmlns="http://www.w3.org/2000/svg">
	<path d="M18.7109 4.58984C18.0859 4.8763 17.4089 5.07161 16.6797 5.17578C17.4349 4.70703 17.9557 4.04297 18.2422 3.18359C17.5391 3.60026 16.7839 3.88672 15.9766 4.04297C15.2734 3.28776 14.388 2.91016 13.3203 2.91016C12.3568 2.91016 11.5234 3.26172 10.8203 3.96484C10.1172 4.66797 9.76562 5.51432 9.76562 6.50391C9.76562 6.76432 9.80469 7.03776 9.88281 7.32422C8.42448 7.24609 7.04427 6.88151 5.74219 6.23047C4.46615 5.55339 3.38542 4.66797 2.5 3.57422C2.1875 4.12109 2.03125 4.72005 2.03125 5.37109C2.03125 5.99609 2.17448 6.56901 2.46094 7.08984C2.7474 7.61068 3.125 8.02734 3.59375 8.33984C3.04688 8.33984 2.51302 8.19661 1.99219 7.91016V7.94922C1.99219 8.80859 2.26562 9.5638 2.8125 10.2148C3.35938 10.8659 4.03646 11.2826 4.84375 11.4648C4.55729 11.543 4.24479 11.582 3.90625 11.582C3.69792 11.582 3.47656 11.556 3.24219 11.5039C3.47656 12.2331 3.89323 12.832 4.49219 13.3008C5.11719 13.7435 5.80729 13.9779 6.5625 14.0039C5.28646 15.0195 3.8151 15.5273 2.14844 15.5273C1.86198 15.5273 1.57552 15.5143 1.28906 15.4883C2.95573 16.556 4.77865 17.0898 6.75781 17.0898C8.84115 17.0898 10.6901 16.556 12.3047 15.4883C13.7891 14.5508 14.9479 13.2747 15.7812 11.6602C16.5625 10.1237 16.9531 8.54818 16.9531 6.93359L16.9141 6.46484C17.6172 5.97005 18.2161 5.34505 18.7109 4.58984Z" fill="currentColor" />
</svg>
