<svg aria-hidden="true" viewBox="0 0 20 20" fill="currentColor" xmlns="http://www.w3.org/2000/svg">
	<path d="M13.8 11.6542C13.5937 11.5507 12.5791 11.0521 12.3902 10.9826C12.2007 10.9139 12.0632 10.8799 11.925 11.0868C11.7882 11.2931 11.3923 11.7576 11.2722 11.8951C11.1521 12.0333 11.0312 12.05 10.825 11.9472C10.6187 11.8431 9.95345 11.6257 9.16525 10.9229C8.55206 10.3757 8.13748 9.70001 8.01734 9.49306C7.8972 9.28681 8.00484 9.17501 8.10762 9.07223C8.20067 8.97987 8.31456 8.83126 8.41734 8.71112C8.52081 8.59028 8.55484 8.50417 8.62428 8.36598C8.69303 8.22848 8.659 8.10834 8.60692 8.00487C8.55484 7.9014 8.14234 6.88543 7.97081 6.47223C7.80275 6.07015 7.63262 6.12501 7.50623 6.11807C7.38609 6.11251 7.24859 6.11112 7.1104 6.11112C6.9729 6.11112 6.74928 6.16251 6.5604 6.36945C6.37151 6.5757 5.83817 7.07501 5.83817 8.09098C5.83817 9.10626 6.57776 10.0875 6.68053 10.2257C6.78401 10.3632 8.13609 12.4479 10.2062 13.3417C10.6986 13.5542 11.0826 13.6812 11.3826 13.7757C11.8771 13.9333 12.3271 13.9111 12.6819 13.8576C13.0784 13.7986 13.9027 13.3583 14.075 12.8764C14.2472 12.3944 14.2472 11.9813 14.1951 11.8951C14.1437 11.809 14.0062 11.7576 13.7993 11.6542H13.8ZM10.0347 16.7951H10.0319C8.80259 16.7952 7.59587 16.4647 6.53817 15.8382L6.28748 15.6896L3.68957 16.3715L4.38262 13.8382L4.21943 13.5785C3.53223 12.4842 3.16869 11.2178 3.17082 9.9257C3.17151 6.14098 6.25137 3.06182 10.0375 3.06182C11.8708 3.06182 13.5944 3.7771 14.8902 5.07432C15.5296 5.71086 16.0364 6.46788 16.3812 7.30157C16.7261 8.13526 16.9021 9.02906 16.8993 9.93125C16.8972 13.716 13.818 16.7951 10.0347 16.7951V16.7951ZM15.877 4.0889C15.1119 3.31871 14.2015 2.70803 13.1986 2.29224C12.1958 1.87645 11.1203 1.66383 10.0347 1.66668C5.48262 1.66668 1.77777 5.37154 1.77568 9.925C1.77568 11.3806 2.15554 12.8014 2.87846 14.0535L1.70624 18.3333L6.0847 17.1847C7.29553 17.8444 8.65236 18.1901 10.0312 18.1903H10.0347C14.5861 18.1903 18.2916 14.4854 18.2937 9.93125C18.2971 8.84603 18.0852 7.77091 17.6704 6.76809C17.2556 5.76527 16.646 4.85465 15.877 4.0889V4.0889Z" fill="currentColor" />
</svg>
