<svg xmlns="http://www.w3.org/2000/svg" viewBox="0 0 210.19 105.3"><defs><style>.a{fill:#1d1d1b;}.b{fill:#36a9e1;}.c{fill:#f39200;}</style></defs><title>logo</title><path class="a" d="M39.55,14.93c5.8,4,7.65-11.48,5.18-12.83C41.59.4,41.18,3.67,40.64,5.73,40.2,7.38,37.57,13.45,39.55,14.93Z"/><path class="a" d="M40.63,5.67c0-.14.07-.28.1-.41A.85.85,0,0,0,40.63,5.67Z"/><path class="a" d="M29.46,12.54c6.07,4.55,9.62-10.28,3.63-10.1a4.62,4.62,0,0,0-2.82,1.07c-.95,1-.28,1-.54,1.8C29.13,7.28,27.07,10.92,29.46,12.54Z"/><path class="a" d="M19.59,12.3c3.39,3.94,4.35-3.21,3.28-5.58C20.24.87,14.15,10,19.59,12.3Z"/><path class="a" d="M13.74,20.12c1.45-1.94,2.47-4.69,1.22-6.58-.93-1.41-2.1-2.08-3.78-1.31C7.36,14,9,21.41,13.74,20.12Z"/><path class="a" d="M61.77,8.24c-.25-3.88-6.32-7-9.5-4.65s-1.54,9.91-2.51,13.32c-.78,2.75-.33,1.67-3.06,1.54l-6.2-.36c-2.15-.14-3.8.09-5.88-.51-3.21-.93-5.8-2.15-9.26-1.88-5.29.41-7.43,3.57-10.64,7-3.49,3.72-4.89,9.88-5.79,14.78-1.5,8.14-1.56,15.93-2.37,24A89.38,89.38,0,0,1,5,73c-1.13,4.7-3.81,9-4.55,13.81-1.06,7-.61,14.93,7.25,17.3,8.56,2.57,16.76,1,22.57-6.09,2.81-3.46,3.81-9.36,5.26-13.55,1.83-5.29,3.23-10.83,5.61-15.88,2.16-4.57,1.86-11,5.77-14.66,2.81-2.62,3.79-2.24,5.28-6.2,1.17-3.1,2.7-6,3.72-9.19A20.08,20.08,0,0,0,57,28.93c-.23-1.79-1.19-4.35-.62-6.12s2.53-3.57,3.29-5.44A24.35,24.35,0,0,0,61.77,8.24Z"/><path class="b" d="M17.64,28.94c2.38-5.67,14.24-7,19.25-4.75,4.81,2.14,9.54,10.49,7.41,16.17-1.23,3.3-4.28,4.55-7.45,5-5.23.69-6.4-.68-8.38,5.52C25.69,59.53,26,65.21,27.2,74S24.41,96.78,13.49,96.05c-14-1-2.63-14.82,0-21.41,1.75-4.49,0-9.23.64-14,.48-3.73,2.28-6.59,2.2-10.37-.1-4.83-1.08-10,.08-14.87.3-1.27,2.16-3.66,2.14-4.49C18.5,30.28,17.6,29,17.64,28.94Z"/><path class="a" d="M103.1,35.62c-.2-.79,0-1.68-.26-2.45-.34-.92-1.29-2.11-1.76-3.06a13.4,13.4,0,0,0-5.53-5.58c-.72-.39-1.57-.74-2.33-1.06S89,22.51,88.66,22c-.75-1.15.78-3.09,1.51-4.13,1.18-1.68,2.24-3.45,3.24-5s2.41-2.91,3.3-4.5,1.93-6.91.2-8.1c-1.55-1.07-2.69,1.48-3.63,2.61-3,3.59-3.41,9.6-5.51,13.89A42.37,42.37,0,0,1,85,21.18a11.11,11.11,0,0,1-2,2.41c-.36.31-1.06.73-1.37,1.05-1.35,1.35-2.29,3.15-3.54,4.61s-3.1,1.92-4.38,2.93c-.76.61-1.18,1.8-2.15,2.34s-2.33.79-3.48,1.34c.45-1.16,2.5-2.49,3.41-3.33a14.31,14.31,0,0,0,4.09-5.19c1.23-3,4.63-8.93.22-10.74-3.34-1.38-2.79.87-3.49,3.38-.63,2.24-.85,4.68-1.61,6.92a36.66,36.66,0,0,1-5,9.49c-4.59,6.06-1.33,16.35,4.94,20.4,3.16,2,7.17,3.91,11,3.67,3.61-.24,7-2.79,9.8-4.9,4-3,8.27-4.39,10.86-9,.7-1.23,1.67-2.18,2.33-3.39a8.43,8.43,0,0,0,.89-4.24C105.2,37.43,103.63,37,103.1,35.62Z"/><path class="a" d="M108.67,25.13c2.86-2.77,6.51-4.43,9-7.59,1.34-1.73,1.15-3.69-1.59-3.34-1.81.24-3.55,1.92-4.91,2.95-3.72,2.82-5.3,6.87-7.44,10.41-.24.4-1.77.86-.86,1.75.48.47.94,0,1.4-.21C106.13,28.4,107.14,26.31,108.67,25.13Z"/><path class="a" d="M118.53,28.67c-.46-1.07-2.69-1.33-3.55-.87-1.08.58-1.66,2.48-2.38,3.4-.9,1.13-5.32,4.65-4.37,6.06-1.76-.4-1.88,3-.5,3.29.89.19,2.74-2.68,3.3-3.32C113,35,120.7,32.57,118.53,28.67Z"/><path class="a" d="M96.35,19.51c-.71.9-1.89,2.6-.73,3.27s3.13-.94,3.94-1.71c1.68-1.6,3.16-3.32,4.94-4.83a49.18,49.18,0,0,0,5.7-6.1c1.7-2,2.39-3.17,2.18-5.64-.09-1.07.34-1.73-1.34-2.13a2.58,2.58,0,0,0-2.61.81A31.2,31.2,0,0,0,105,7.7c-1.6,2.23-2.65,4.78-4.15,7A20.72,20.72,0,0,1,99,17.14C98.43,17.79,96.7,18.89,96.35,19.51Z"/><path class="c" d="M70.2,33.19A5.27,5.27,0,0,1,69,34.82c-1.47,1.72-1.53,2.89-1.74,5.18-.15,1.6-1.08,4.16.06,5.6,1.47,1.86,4.16.59,6,.7,3.19.19,1.69,1.85,2.1,3.84a9.72,9.72,0,0,0,2.4,3.63c2.76,2.93,7.68.63,11-.58a23.76,23.76,0,0,0,6.88-4.29c2.43-2.21,5.44-5.74,5-9.43-.55-4.28-6.42-4-8.93-6.31-1.82-1.67-2-6.24-4.91-6.33-3.25-.1-3.13,3.87-5.75,5-1.38.57-2.94.88-4.33,1.38-.69.24-4.19.31-2.76-1C73.22,31.85,70.89,32.64,70.2,33.19Z"/><path class="a" d="M58.7,80.43H51.23l-1.39,3.43h-5.1l7.8-17.66h4.92l7.82,17.66h-5.2Zm-1.47-3.69L55,71.09l-2.27,5.65Z"/><path class="a" d="M75.77,83.3a4.7,4.7,0,0,1-1.47.58,7.92,7.92,0,0,1-1.86.2,5.87,5.87,0,0,1-4.11-1.31,5,5,0,0,1-1.44-3.91V74.27h-2V70.69h2V67.13h4.8v3.56h3.13v3.58H71.69v4.54A1.62,1.62,0,0,0,72.08,80a1.36,1.36,0,0,0,1,.42A2.59,2.59,0,0,0,74.59,80Z"/><path class="a" d="M86.77,83.3a4.7,4.7,0,0,1-1.47.58,7.92,7.92,0,0,1-1.86.2,5.87,5.87,0,0,1-4.11-1.31,5,5,0,0,1-1.44-3.91V74.27h-2V70.69h2V67.13h4.8v3.56h3.13v3.58H82.69v4.54A1.62,1.62,0,0,0,83.08,80a1.36,1.36,0,0,0,1,.42A2.59,2.59,0,0,0,85.59,80Z"/><path class="a" d="M88.89,67.94a2.46,2.46,0,0,1,0-3.63A3,3,0,0,1,91,63.57a3.15,3.15,0,0,1,2.12.7,2.23,2.23,0,0,1,.81,1.78,2.46,2.46,0,0,1-.81,1.88,3.42,3.42,0,0,1-4.24,0Zm-.27,2.24h4.79V83.86H88.62Z"/><path class="a" d="M110.92,70.18l-5.65,13.68h-5L94.7,70.18h4.91l3.28,8.35,3.46-8.35Z"/><path class="a" d="M122.7,71.51a6,6,0,0,1,1.79,4.75v7.6H120V82.09q-1,2-4,2a6.31,6.31,0,0,1-2.75-.55,4.09,4.09,0,0,1-1.76-1.5,4,4,0,0,1-.59-2.16,3.5,3.5,0,0,1,1.49-3A7.85,7.85,0,0,1,117,75.78h2.73c-.09-1.44-1.06-2.17-2.91-2.17a6.67,6.67,0,0,0-2,.32,5.29,5.29,0,0,0-1.71.87l-1.62-3.25a9,9,0,0,1,2.76-1.18A13.56,13.56,0,0,1,117.5,70,7.71,7.71,0,0,1,122.7,71.51Zm-3.91,9.14a2.27,2.27,0,0,0,.91-1.18V78.28h-2.07c-1.4,0-2.1.46-2.1,1.39a1.22,1.22,0,0,0,.48,1,2.08,2.08,0,0,0,1.31.38A2.66,2.66,0,0,0,118.79,80.65Z"/><path class="a" d="M143.69,83.86l-.05-9.36-4.54,7.62h-2.22l-4.52-7.37v9.11h-4.62V66.2h4.11l6.21,10.19,6.06-10.19h4.11l.05,17.66Z"/><path class="a" d="M165.48,78.23h-9.94a2.83,2.83,0,0,0,1.18,1.63,3.88,3.88,0,0,0,2.18.57,4.8,4.8,0,0,0,1.7-.28,5,5,0,0,0,1.45-.91l2.53,2.62a7.44,7.44,0,0,1-5.83,2.22,9.35,9.35,0,0,1-4.21-.9,6.91,6.91,0,0,1-.16-12.32,8.2,8.2,0,0,1,3.86-.9,8.1,8.1,0,0,1,3.71.84,6.49,6.49,0,0,1,2.64,2.45,7.16,7.16,0,0,1,1,3.8S165.53,77.47,165.48,78.23ZM156.41,74a2.87,2.87,0,0,0-.94,1.72h5.6a2.88,2.88,0,0,0-.95-1.72,2.75,2.75,0,0,0-1.85-.63A2.79,2.79,0,0,0,156.41,74Z"/><path class="a" d="M180.78,71.47A6.1,6.1,0,0,1,182.34,76v7.82h-4.8v-7c0-1.87-.75-2.8-2.24-2.8a2.54,2.54,0,0,0-2,.81,3.42,3.42,0,0,0-.75,2.42v6.61h-4.79V70.18h4.57v1.49a5.33,5.33,0,0,1,1.91-1.27,6.41,6.41,0,0,1,2.43-.44A5.6,5.6,0,0,1,180.78,71.47Z"/><path class="a" d="M194.77,83.3a4.7,4.7,0,0,1-1.47.58,7.92,7.92,0,0,1-1.86.2,5.87,5.87,0,0,1-4.11-1.31,5,5,0,0,1-1.44-3.91V74.27h-2V70.69h2V67.13h4.8v3.56h3.12v3.58h-3.12v4.54a1.62,1.62,0,0,0,.39,1.15,1.36,1.36,0,0,0,1,.42,2.59,2.59,0,0,0,1.47-.43Z"/><path class="a" d="M210.11,78.23h-9.94a2.77,2.77,0,0,0,1.17,1.63,3.94,3.94,0,0,0,2.19.57,4.84,4.84,0,0,0,1.7-.28,5.17,5.17,0,0,0,1.45-.91l2.52,2.62a7.42,7.42,0,0,1-5.82,2.22,9.4,9.4,0,0,1-4.22-.9A6.72,6.72,0,0,1,195.35,77,6.74,6.74,0,0,1,199,70.86a8.67,8.67,0,0,1,7.57-.06,6.49,6.49,0,0,1,2.64,2.45,7.25,7.25,0,0,1,1,3.8S210.16,77.47,210.11,78.23ZM201,74a2.87,2.87,0,0,0-.94,1.72h5.6a2.88,2.88,0,0,0-.95-1.72A3,3,0,0,0,201,74Z"/><path class="a" d="M53.56,96.88H47L45.6,100H43.77l5.62-12.41h1.76L56.78,100H54.92Zm-.62-1.41-2.68-6.08-2.68,6.08Z"/><path class="a" d="M75.91,93.71h1.7v4.84a6.52,6.52,0,0,1-2.14,1.17,8.1,8.1,0,0,1-2.55.41,6.92,6.92,0,0,1-3.39-.83A6.13,6.13,0,0,1,67.16,97a6.61,6.61,0,0,1,0-6.52,6,6,0,0,1,2.38-2.27A7.13,7.13,0,0,1,73,87.44a7.29,7.29,0,0,1,2.7.48,5.58,5.58,0,0,1,2.07,1.43l-1.1,1.1A5,5,0,0,0,73,89a5.33,5.33,0,0,0-2.54.61,4.55,4.55,0,0,0-1.77,1.71,5.06,5.06,0,0,0,0,4.89,4.55,4.55,0,0,0,1.77,1.71,5.17,5.17,0,0,0,2.52.62,5.29,5.29,0,0,0,2.91-.8Z"/><path class="a" d="M92.08,99.3A6,6,0,0,1,89.71,97a6.55,6.55,0,0,1,0-6.49,6,6,0,0,1,2.37-2.28,7.36,7.36,0,0,1,6.75,0,6.06,6.06,0,0,1,2.36,2.27,6.66,6.66,0,0,1,0,6.51,6,6,0,0,1-2.36,2.26,7.28,7.28,0,0,1-6.75,0Zm5.84-1.37a4.48,4.48,0,0,0,1.72-1.71,4.8,4.8,0,0,0,.63-2.44,4.73,4.73,0,0,0-.63-2.43,4.58,4.58,0,0,0-1.72-1.72A4.94,4.94,0,0,0,95.46,89a5,5,0,0,0-2.47.62,4.56,4.56,0,0,0-1.74,1.72,4.73,4.73,0,0,0-.63,2.43,4.8,4.8,0,0,0,.63,2.44A4.47,4.47,0,0,0,93,97.93a5,5,0,0,0,2.47.62A4.94,4.94,0,0,0,97.92,97.93Z"/><path class="a" d="M121.91,100l-2.67-3.82c-.34,0-.6,0-.78,0h-3.07V100h-1.77V87.58h4.84a5.74,5.74,0,0,1,3.79,1.15,3.92,3.92,0,0,1,1.38,3.17,4.1,4.1,0,0,1-.71,2.45,4,4,0,0,1-2,1.47l2.94,4.17ZM121,94a2.55,2.55,0,0,0,.89-2.08,2.51,2.51,0,0,0-.89-2.06,4,4,0,0,0-2.57-.72h-3V94.7h3A4,4,0,0,0,121,94Z"/><path class="a" d="M135.37,87.58h5.23a7.57,7.57,0,0,1,3.49.78,5.77,5.77,0,0,1,2.37,2.19,6.65,6.65,0,0,1,0,6.47,5.77,5.77,0,0,1-2.37,2.19,7.57,7.57,0,0,1-3.49.78h-5.23Zm5.12,10.86a5.75,5.75,0,0,0,2.65-.58,4.23,4.23,0,0,0,1.76-1.64,5,5,0,0,0,0-4.87,4.11,4.11,0,0,0-1.76-1.64,5.63,5.63,0,0,0-2.65-.59h-3.35v9.32Z"/><path class="a" d="M158.87,87.58h1.78V100h-1.78Z"/><path class="a" d="M183.9,87.58V100h-1.45L175,90.73V100h-1.77V87.58h1.46l7.44,9.25V87.58Z"/><path class="a" d="M198.71,99.3A6,6,0,0,1,196.34,97a6.55,6.55,0,0,1,0-6.49,6,6,0,0,1,2.37-2.28,7.36,7.36,0,0,1,6.75,0,6.13,6.13,0,0,1,2.36,2.27,6.66,6.66,0,0,1,0,6.51,6.11,6.11,0,0,1-2.36,2.26,7.28,7.28,0,0,1-6.75,0Zm5.84-1.37a4.55,4.55,0,0,0,1.72-1.71,4.8,4.8,0,0,0,.63-2.44,4.73,4.73,0,0,0-.63-2.43,4.65,4.65,0,0,0-1.72-1.72,4.94,4.94,0,0,0-2.46-.62,5,5,0,0,0-2.47.62,4.56,4.56,0,0,0-1.74,1.72,4.73,4.73,0,0,0-.63,2.43,4.8,4.8,0,0,0,.63,2.44,4.47,4.47,0,0,0,1.74,1.71,5,5,0,0,0,2.47.62A4.94,4.94,0,0,0,204.55,97.93Z"/></svg>